<svg id="Ebene_1" data-name="Ebene 1" xmlns="http://www.w3.org/2000/svg" xmlns:xlink="http://www.w3.org/1999/xlink" viewBox="0 0 1966.98 486.55"><defs><linearGradient id="Verlauf_1" x1="1037.2" y1="782.92" x2="1509.36" y2="-34.88" gradientUnits="userSpaceOnUse"><stop offset="0.32" stop-color="#662483"/><stop offset="0.73" stop-color="#a3195b"/><stop offset="0.87" stop-color="#ca1b69"/><stop offset="1" stop-color="#e71d73"/></linearGradient><clipPath id="clip-path" transform="translate(-12.84 -54.03)"><path d="M128.35,230.65,195.26,263,145.91,143.18h56.83a33.37,33.37,0,0,0,9.23-9.26c2.81-4.45,1.64-14.52-.5-32.79C210.18,90,209.2,84,202.85,79.48a30.65,30.65,0,0,0-11.41-4.57C175,71.33,147.21,67,128,64.2H78.44c-18.46,0-36,6.37-46.86,17S17.35,106,22.65,118.84l73.48,178.4Z" style="fill:none"/></clipPath><linearGradient id="Neues_Verlaufsfeld_1" x1="143.93" y1="569.64" x2="520.79" y2="-83.1" gradientUnits="userSpaceOnUse"><stop offset="0.32" stop-color="#662483"/><stop offset="0.62" stop-color="#a3195b"/><stop offset="0.76" stop-color="#ca1b69"/><stop offset="0.88" stop-color="#e71d73"/></linearGradient><clipPath id="clip-path-2" transform="translate(-12.84 -54.03)"><path d="M423.16,73.15l-1.59-.25a61.94,61.94,0,0,0-8.1,5.09l11.7,1.2Z" style="fill:none"/></clipPath><clipPath id="clip-path-3" transform="translate(-12.84 -54.03)"><path d="M415,102.39a4.81,4.81,0,0,0,5.43-4,4.69,4.69,0,0,0-4-5.35,4.84,4.84,0,0,0-5.44,4A4.68,4.68,0,0,0,415,102.39Z" style="fill:none"/></clipPath><clipPath id="clip-path-4" transform="translate(-12.84 -54.03)"><path d="M544.66,170.12a4.82,4.82,0,0,0-5.41,4,4.67,4.67,0,0,0,3.94,5.32h0a4.84,4.84,0,0,0,5.42-4A4.68,4.68,0,0,0,544.66,170.12Z" style="fill:none"/></clipPath><clipPath id="clip-path-5" transform="translate(-12.84 -54.03)"><path d="M572.76,133.45a4.81,4.81,0,0,0-6.39,2.16,4.66,4.66,0,0,0,2.11,6.31,4.82,4.82,0,0,0,6.39-2.16A4.66,4.66,0,0,0,572.76,133.45Z" style="fill:none"/></clipPath><clipPath id="clip-path-6" transform="translate(-12.84 -54.03)"><path d="M606,66.45l-1.16-2.24H592l-6.6,47.12-53.71-25L496.5,104.47l-14-12L469.21,66.79a5.43,5.43,0,0,1-5.86-2.58H458A80,80,0,0,0,425.52,71l8,24.3,18.85,5.48a5.58,5.58,0,0,1,6.23-2.36,5.38,5.38,0,0,1,3.67,6.75,5.57,5.57,0,0,1-6.86,3.69,5.4,5.4,0,0,1-3.89-5.31l-20.3-5.9-5.1-15.44-15.9-1.63a44.8,44.8,0,0,0-10,12.15L399.56,94,410,95.45a6.31,6.31,0,0,1,6.71-3.82,6.09,6.09,0,0,1,5.2,7,6.26,6.26,0,0,1-7.09,5.22l1,.14-1-.14a6.14,6.14,0,0,1-5.26-5.51l-11.49-1.64L243,379l-28.8-69.9L143.78,275l-30.69,63.42,69.12,167.81a40.43,40.43,0,0,0,10.15,14.32c10,9.26,25,14.86,41.06,15.39.82,0,1.64,0,2.46,0,15.18,0,29.76-4.58,40.32-12.71a44,44,0,0,0,11.87-13.6L455.26,205.22l-7.6-4.81A5.56,5.56,0,0,1,441,201a5.39,5.39,0,0,1-1.61-7.51,5.54,5.54,0,0,1,7.59-1.69,5.35,5.35,0,0,1,2.24,6.17l7.43,4.7,3.64-6.65-23-15.86L421,188.57a5.45,5.45,0,1,1-1.33-2.55l17.88-9.25,24.18,16.67,4-7.32L458,180.48,460.64,169l-8.94-5.76-9.44,5.73-26-19.09-9.79,5.06a5.43,5.43,0,1,1-1.33-2.57l11.42-5.9,25.88,19,9.33-5.67,12.17,7.84-2.71,11.63,5.93,4.3,16.75-30.49L465.76,137l-12.84,14.89L441.08,142A6.25,6.25,0,1,1,443,139.8l9.62,8,12.9-14.95,19.84,17.56,4-7.22H542.4L523.93,188l9.37,5.15a6.29,6.29,0,0,1,7.54-1.15,6.1,6.1,0,0,1,2.32,8.39,6.3,6.3,0,0,1-8.48,2.4,6.11,6.11,0,0,1-2.87-7.12l-9-5-5.68,13.79a5.53,5.53,0,0,1,5.69-.35,5.36,5.36,0,0,1,2.73,6l32.59,17.15,12.68-6.55,42.4,25.37q1.21-2.94,2.42-5.88l-37.91-21.61-21-40.63-7.06-1A6.32,6.32,0,0,1,543,180.9a6.11,6.11,0,0,1-5.21-7,6.31,6.31,0,0,1,7.08-5.25,6.11,6.11,0,0,1,5.26,5.52l8.53,1.17L580,216.56l36.81,21q2.28-5.52,4.55-11l-40.2-22.11-37.78-73.13-27.92-11.84L489.93,132.6l-19.67-13.35-16.61,8.59-15.18-7.32a5.54,5.54,0,0,1-6.53,1.31,5.38,5.38,0,0,1-2.46-7.27,5.57,5.57,0,0,1,7.36-2.53,5.39,5.39,0,0,1,2.94,5.89l13.85,6.67,16.86-8.7,19.67,13.34,25.16-13L545.46,129l37.85,73.27,39.12,21.51,2.29-5.56L591.56,201l-11.87-23a5.5,5.5,0,1,1,2.6-1.34l11.46,22.17,24.86,12.92-33.88-65.57-9.34-4.61a6.31,6.31,0,0,1-7.57,1.65,6.12,6.12,0,0,1-2.76-8.25,6.31,6.31,0,0,1,8.35-2.84,6.09,6.09,0,0,1,3.27,6.84l9.79,4.81.44.23,38,73.65,1.68-4.07L580.3,124,531,99.84,490.08,121l-21.25-16.4-6.64-12.84a5.42,5.42,0,0,1-3.6-10.14,5.42,5.42,0,0,1,6.2,8.8l6.35,12.29,19.29,14.86L531,96.59l51.52,25.21,45.7,88.05,7.3-17.71-35.82-69.33ZM414.59,103.79l-.56-.09Zm-10.87,38.86-10.61-1.17a6.32,6.32,0,0,1-6.58,4.09,6.07,6.07,0,0,1-5.44-6.78,6.28,6.28,0,0,1,6.9-5.47,6.09,6.09,0,0,1,5.44,5.28l9.76,1.08,12.95-6.7-7.95-15.39a5.51,5.51,0,1,1,2.59-1.34l9.29,18Z" style="fill:none"/></clipPath><clipPath id="clip-path-7" transform="translate(-12.84 -54.03)"><path d="M602.68,122.29l4.61,8.93,7.15-66.79,0-.09c-1.51-.08-3-.13-4.54-.13h-1.71l.89,1.72Z" style="fill:none"/></clipPath><clipPath id="clip-path-8" transform="translate(-12.84 -54.03)"><path d="M496.94,101l34.71-17.94,51.41,24,6-42.82h-20.6l-.13,1a6.08,6.08,0,0,1,4.06,6.47,6.31,6.31,0,0,1-6.91,5.48A6.1,6.1,0,0,1,560,70.41a6.29,6.29,0,0,1,5.4-5.45l.1-.75H472.82a5.62,5.62,0,0,1-1,1.23l13,25.19Zm4.92-22.2a5.49,5.49,0,0,1,6.53,1.11L531.07,68.2l36.07,18A5.54,5.54,0,0,1,573.68,85a5.37,5.37,0,0,1,2.37,7.29,5.56,5.56,0,0,1-7.39,2.45,5.4,5.4,0,0,1-2.86-5.93l-34.73-17.3-21.35,11a5.49,5.49,0,1,1-7.86-3.67Z" style="fill:none"/></clipPath><clipPath id="clip-path-9" transform="translate(-12.84 -54.03)"><path d="M561.48,70.56v.1a4.68,4.68,0,0,0,4.18,5.11,4.84,4.84,0,0,0,5.28-4.2,4.68,4.68,0,0,0-4.16-5.2A4.82,4.82,0,0,0,561.48,70.56Z" style="fill:none"/></clipPath><clipPath id="clip-path-10" transform="translate(-12.84 -54.03)"><path d="M617.39,64.57,609.75,136l27.18,52.62q1.56-3.79,3.13-7.59L617,136.31l5.94-32.53a5.76,5.76,0,0,1-3-6.12,5.43,5.43,0,0,1,6.45-4.37,5.73,5.73,0,0,1,4.43,6.62,5.43,5.43,0,0,1-5,4.47l-5.75,31.51,21.47,41.56,5.77-14a5.66,5.66,0,0,1-2.52-10.61,5.54,5.54,0,0,1,6.45,1.07q1.83-4.47,3.68-8.93l-18.44-9.2a6.15,6.15,0,0,1-7.54,1.58,6.48,6.48,0,0,1-3-8.52,6.13,6.13,0,0,1,8.35-2.85,6.51,6.51,0,0,1,3.44,7.12l18.3,9.13,4.52-11-33.68-65.2A77.66,77.66,0,0,0,617.39,64.57Z" style="fill:none"/></clipPath><clipPath id="clip-path-11" transform="translate(-12.84 -54.03)"><path d="M656.73,81.24C650.08,74.73,641,69.82,630.65,67L662,127.7q1.83-4.44,3.65-8.86C666.48,116.89,673.9,98.05,656.73,81.24Z" style="fill:none"/></clipPath><clipPath id="clip-path-12" transform="translate(-12.84 -54.03)"><path d="M633.66,127.31a4.69,4.69,0,0,0-6.39,2.18,5,5,0,0,0,2.27,6.52,4.7,4.7,0,0,0,6.39-2.18A5,5,0,0,0,633.66,127.31Z" style="fill:none"/></clipPath><clipPath id="clip-path-13" transform="translate(-12.84 -54.03)"><path d="M387.94,134.77l-.12,0a4.82,4.82,0,0,0-5.28,4.2,4.66,4.66,0,0,0,4.16,5.19,4.82,4.82,0,0,0,5.29-4.2A4.66,4.66,0,0,0,387.94,134.77Z" style="fill:none"/></clipPath><clipPath id="clip-path-14" transform="translate(-12.84 -54.03)"><path d="M554.53,342.64v.15a4.82,4.82,0,0,0,4.34,5.08,4.69,4.69,0,0,0,5.09-4.3,4.83,4.83,0,0,0-4.34-5.17A4.68,4.68,0,0,0,554.53,342.64Z" style="fill:none"/></clipPath><clipPath id="clip-path-15" transform="translate(-12.84 -54.03)"><path d="M558.1,230.61l-33.94-17.87a5.57,5.57,0,0,1-6.56,1.09,5.32,5.32,0,0,1-2.77-3.69l-4.39,10.66,44.25,25.1L534,256.61l6.58,12.91-20.1,10.39-31.65-6.53L441,389.48a42.86,42.86,0,0,0,6.14,12.28c9.48,13.3,21.89,21.31,36.9,23.83,27.34,4.57,50.73-10.65,60.24-20.37a44.54,44.54,0,0,0,8.22-11.54l.25-.61,31-75.29-30.39-15.56-23.44,12L512.67,299a5.46,5.46,0,0,1-6.61-.46,5.38,5.38,0,0,1-.4-7.68,5.5,5.5,0,0,1,7.74-.48,5.35,5.35,0,0,1,1.23,6.46l15.73,13.88,23-11.78,31.47,16.1q1.62-4,3.26-7.93l-39.32-21.08-2,1a5.42,5.42,0,1,1-1.32-2.56l3.34-1.72,40.37,21.65,6.8-16.5L578.4,297l-16.87-32.38a5.42,5.42,0,0,1-3.64-10.12,5.42,5.42,0,0,1,6.23,8.78l15.54,29.81,18.05-9.32,7.2-17.48-5-10-17.47,9-7.3-13.56a6.24,6.24,0,1,1,2.6-1.35l5.94,11,17.55-9.06,5.15,10.32,5.71-13.86L570.69,224.1ZM528.91,319.2a5.42,5.42,0,0,1,6.52,1l17.72-9.74L562,326.59l-.89,10.66a6.32,6.32,0,0,1,4.27,6.46,6.11,6.11,0,0,1-6.65,5.61,6.28,6.28,0,0,1-5.65-6.76,6.13,6.13,0,0,1,5.14-5.57l.83-9.78-7-12.78-15.2,8.35a5.43,5.43,0,1,1-7.93-3.58Z" style="fill:none"/></clipPath><clipPath id="clip-path-16" transform="translate(-12.84 -54.03)"><path d="M577.92,243.59h0a4.77,4.77,0,1,0-2,6.4A4.74,4.74,0,0,0,577.91,243.58Z" style="fill:none"/></clipPath><clipPath id="clip-path-17" transform="translate(-12.84 -54.03)"><path d="M440.58,133.38h0a4.77,4.77,0,1,0,.52,6.68A4.75,4.75,0,0,0,440.58,133.37Z" style="fill:none"/></clipPath><clipPath id="clip-path-18" transform="translate(-12.84 -54.03)"><path d="M533.63,195.15a4.65,4.65,0,0,0,1.77,6.41,4.79,4.79,0,0,0,6.48-1.84,4.64,4.64,0,0,0-1.77-6.41l.4.22-.39-.22A4.81,4.81,0,0,0,533.63,195.15Z" style="fill:none"/></clipPath><clipPath id="clip-path-19" transform="translate(-12.84 -54.03)"><polygon points="517.52 271.9 491.83 265.97 489.91 270.64 520.04 276.86 528.66 272.4 526.11 267.46 517.52 271.9" style="fill:none"/></clipPath><clipPath id="clip-path-20" transform="translate(-12.84 -54.03)"><polygon points="530.7 256.68 530.05 255.39 548.6 245.79 540.39 241.15 524.84 249.18 504.14 236.1 500.24 245.55 524.7 259.78 530.7 256.68" style="fill:none"/></clipPath><clipPath id="clip-path-21" transform="translate(-12.84 -54.03)"><polygon points="537.4 239.44 509.32 223.51 505.26 233.36 525.01 245.84 537.4 239.44" style="fill:none"/></clipPath><clipPath id="clip-path-22" transform="translate(-12.84 -54.03)"><polygon points="524.58 263.08 499.13 248.27 492.96 263.24 517.16 268.84 527.38 263.55 531.26 271.06 536.62 268.29 532.01 259.24 524.58 263.08" style="fill:none"/></clipPath><linearGradient id="Neues_Verlaufsfeld_1-23" x1="374.16" y1="133.42" x2="214.13" y2="409.09" gradientTransform="matrix(1, 0, 0, 1, 5.61, 5.74)" xlink:href="#Neues_Verlaufsfeld_1"/></defs><path d="M676.35,165.09h0" transform="translate(-12.84 -54.03)" style="fill:#fff"/><path d="M676.35,165.09c.06-.36.1-.56.1-.64,0,.1-.06.37-.1.64" transform="translate(-12.84 -54.03)" style="fill:#fff"/><path d="M668.57,163.93h0" transform="translate(-12.84 -54.03)" style="fill:#fff"/><path d="M776.73,212.65q60.57,0,86.78,26.37t5.6,83L813.88,473.79q-5.46,15-15.25,23.12a125.44,125.44,0,0,1-24.13,15.3Q754,522,724.7,529.15t-64.47,7.16q-63.18,0-89.66-24.75t-8.94-72.94q15.64-43,51.62-65.77t90-28l93.83-9.12,5.22-14.33q10.43-28.65-3.39-41.68t-47-13a203.1,203.1,0,0,0-52.75,7.16,407.21,407.21,0,0,0-48.91,16.28,29,29,0,0,1-6.45-12.7q-1.85-7.47,1.48-16.6A43.72,43.72,0,0,1,657.4,242.6q8.13-7.15,21.76-12.37a208.6,208.6,0,0,1,46.53-13.35A305.27,305.27,0,0,1,776.73,212.65ZM679.66,482.91a173.94,173.94,0,0,0,41.39-4.56q18.59-4.55,27.65-9.77l30.1-82.71L705.21,393q-31.15,3.25-49.79,13.35t-26.24,30.93q-7.81,21.49,4.07,33.54T679.66,482.91Z" transform="translate(-12.84 -54.03)"/><path d="M1093.36,442.53q-15.88,43.64-57.45,68.38T932.48,535.66A238.79,238.79,0,0,1,887,531.75q-20.07-3.9-32.76-11.07t-17.61-16.93q-4.92-9.78-.65-21.49A53.07,53.07,0,0,1,847.52,464a65.15,65.15,0,0,1,18.32-13.67,167,167,0,0,0,33.86,21.49q19.89,9.77,51.15,9.76,29.31,0,48.61-10.09t26.18-29q5.91-16.26-1.27-26t-26.13-15l-40-11.72q-40-11.71-53.51-31.91T904,302.52A118.45,118.45,0,0,1,924.75,267a135.19,135.19,0,0,1,33.55-28.65,171.33,171.33,0,0,1,45-18.89,208.81,208.81,0,0,1,54.59-6.83,213.18,213.18,0,0,1,41.35,3.58q17.89,3.59,29.66,9.77t16.25,15.3q4.49,9.13.7,19.54a49.76,49.76,0,0,1-11.08,17.91,62.23,62.23,0,0,1-16.11,12q-9.11-7.16-29.15-15.63t-46.74-8.46q-27.35,0-46.41,9.44T971.1,302.52q-4.76,13,1,21.49t25.3,13.67l34.22,9.77q44.73,13,60.14,35.17T1093.36,442.53Z" transform="translate(-12.84 -54.03)"/><path d="M1190.1,470.54q10.13,9.76,34.87,9.76a105.83,105.83,0,0,0,24.63-3.25,155.38,155.38,0,0,0,24.33-7.82,43.29,43.29,0,0,1,3.88,11.72q1.2,6.53-2.11,15.63-6.17,16.95-27.45,28t-56.45,11.07q-48.84,0-69.88-21.82t-2.79-72l110.69-304.12q5-1.31,14.21-3.26a90.18,90.18,0,0,1,19-2q18.87,0,25.07,7.17t0,24.09l-23.47,64.48h100.94q1.18,3.9.86,11.07a50.84,50.84,0,0,1-3.18,15q-10.18,28-34.28,28h-84l-56.41,155Q1180,460.77,1190.1,470.54Z" transform="translate(-12.84 -54.03)"/><path d="M1354.1,527.89a89,89,0,0,1-14,3.58,105.38,105.38,0,0,1-19.16,1.63q-18.89,0-25.39-7.16t-.35-24.1l100.27-275.47q5.67-1.31,14.53-3.26a89.53,89.53,0,0,1,19.27-2q18.88,0,25.07,7.16t-.21,24.75Zm69-397.25q6.16-16.93,22-28.33t34.1-11.4q18.23,0,25.16,11.4t.76,28.33A61,61,0,0,1,1483.82,159a54.61,54.61,0,0,1-33.46,11.39q-18.22,0-25.8-11.39T1423.14,130.64Z" transform="translate(-12.84 -54.03)"/><path d="M1641.34,268a126,126,0,0,0-40.91,6.84,129.94,129.94,0,0,0-37.75,20.51,169.8,169.8,0,0,0-32.4,33.54,179.89,179.89,0,0,0-24.2,45.91q-18.72,51.46-1.86,78.48t59.85,27q24.73,0,44.7-6.51a203.14,203.14,0,0,0,36.29-15.63,28,28,0,0,1,9.18,12.38q2.58,7.17-1.19,17.58-7.35,20.19-38.7,33.86T1540,535.66q-35.82,0-61.89-9.77t-40.22-30q-14.14-20.18-15.17-50.47t13.67-70.66q14.7-40.37,38.53-71t53-50.8a226.08,226.08,0,0,1,127.68-40.37q21.5,0,37.33,3.9t25.72,10.75q9.87,6.84,13.52,15.63a24.79,24.79,0,0,1,.09,18.56,44.64,44.64,0,0,1-10.93,16.6,56.49,56.49,0,0,1-16.2,11.4,119.33,119.33,0,0,0-24.83-15Q1666.09,268,1641.34,268Z" transform="translate(-12.84 -54.03)"/><path d="M1925.63,442.53q-15.89,43.64-57.45,68.38t-103.44,24.75a238.76,238.76,0,0,1-45.46-3.91q-20.07-3.9-32.77-11.07t-17.61-16.93q-4.9-9.78-.64-21.49A53.19,53.19,0,0,1,1679.78,464a65.2,65.2,0,0,1,18.33-13.67A166.71,166.71,0,0,0,1732,471.84q19.89,9.77,51.15,9.76,29.3,0,48.6-10.09t26.18-29q5.92-16.26-1.26-26t-26.13-15l-40-11.72q-40-11.71-53.51-31.91t-.69-55.35A118.45,118.45,0,0,1,1757,267a135.19,135.19,0,0,1,33.55-28.65,171.19,171.19,0,0,1,45-18.89,208.81,208.81,0,0,1,54.59-6.83,213.25,213.25,0,0,1,41.35,3.58q17.89,3.59,29.66,9.77t16.24,15.3q4.5,9.13.71,19.54A49.76,49.76,0,0,1,1967,278.75a62.23,62.23,0,0,1-16.11,12q-9.12-7.16-29.15-15.63T1875,266.7q-27.35,0-46.42,9.44t-25.23,26.38q-4.74,13,1,21.49t25.31,13.67l34.21,9.77q44.75,13,60.14,35.17T1925.63,442.53Z" transform="translate(-12.84 -54.03)"/><path d="M776.73,212.65q60.57,0,86.78,26.37t5.6,83L813.88,473.79q-5.46,15-15.25,23.12a125.44,125.44,0,0,1-24.13,15.3Q754,522,724.7,529.15t-64.47,7.16q-63.18,0-89.66-24.75t-8.94-72.94q15.64-43,51.62-65.77t90-28l93.83-9.12,5.22-14.33q10.43-28.65-3.39-41.68t-47-13a203.1,203.1,0,0,0-52.75,7.16,407.21,407.21,0,0,0-48.91,16.28,29,29,0,0,1-6.45-12.7q-1.85-7.47,1.48-16.6A43.72,43.72,0,0,1,657.4,242.6q8.13-7.15,21.76-12.37a208.6,208.6,0,0,1,46.53-13.35A305.27,305.27,0,0,1,776.73,212.65ZM679.66,482.91a173.94,173.94,0,0,0,41.39-4.56q18.59-4.55,27.65-9.77l30.1-82.71L705.21,393q-31.15,3.25-49.79,13.35t-26.24,30.93q-7.81,21.49,4.07,33.54T679.66,482.91Z" transform="translate(-12.84 -54.03)" style="fill:url(#Verlauf_1)"/><path d="M1093.36,442.53q-15.88,43.64-57.45,68.38T932.48,535.66A238.79,238.79,0,0,1,887,531.75q-20.07-3.9-32.76-11.07t-17.61-16.93q-4.92-9.78-.65-21.49A53.07,53.07,0,0,1,847.52,464a65.15,65.15,0,0,1,18.32-13.67,167,167,0,0,0,33.86,21.49q19.89,9.77,51.15,9.76,29.31,0,48.61-10.09t26.18-29q5.91-16.26-1.27-26t-26.13-15l-40-11.72q-40-11.71-53.51-31.91T904,302.52A118.45,118.45,0,0,1,924.75,267a135.19,135.19,0,0,1,33.55-28.65,171.33,171.33,0,0,1,45-18.89,208.81,208.81,0,0,1,54.59-6.83,213.18,213.18,0,0,1,41.35,3.58q17.89,3.59,29.66,9.77t16.25,15.3q4.49,9.13.7,19.54a49.76,49.76,0,0,1-11.08,17.91,62.23,62.23,0,0,1-16.11,12q-9.11-7.16-29.15-15.63t-46.74-8.46q-27.35,0-46.41,9.44T971.1,302.52q-4.76,13,1,21.49t25.3,13.67l34.22,9.77q44.73,13,60.14,35.17T1093.36,442.53Z" transform="translate(-12.84 -54.03)" style="fill:url(#Verlauf_1)"/><path d="M1190.1,470.54q10.13,9.76,34.87,9.76a105.83,105.83,0,0,0,24.63-3.25,155.38,155.38,0,0,0,24.33-7.82,43.29,43.29,0,0,1,3.88,11.72q1.2,6.53-2.11,15.63-6.17,16.95-27.45,28t-56.45,11.07q-48.84,0-69.88-21.82t-2.79-72l110.69-304.12q5-1.31,14.21-3.26a90.18,90.18,0,0,1,19-2q18.87,0,25.07,7.17t0,24.09l-23.47,64.48h100.94q1.18,3.9.86,11.07a50.84,50.84,0,0,1-3.18,15q-10.18,28-34.28,28h-84l-56.41,155Q1180,460.77,1190.1,470.54Z" transform="translate(-12.84 -54.03)" style="fill:url(#Verlauf_1)"/><path d="M1354.1,527.89a89,89,0,0,1-14,3.58,105.38,105.38,0,0,1-19.16,1.63q-18.89,0-25.39-7.16t-.35-24.1l100.27-275.47q5.67-1.31,14.53-3.26a89.53,89.53,0,0,1,19.27-2q18.88,0,25.07,7.16t-.21,24.75Zm69-397.25q6.16-16.93,22-28.33t34.1-11.4q18.23,0,25.16,11.4t.76,28.33A61,61,0,0,1,1483.82,159a54.61,54.61,0,0,1-33.46,11.39q-18.22,0-25.8-11.39T1423.14,130.64Z" transform="translate(-12.84 -54.03)" style="fill:url(#Verlauf_1)"/><path d="M1641.34,268a126,126,0,0,0-40.91,6.84,129.94,129.94,0,0,0-37.75,20.51,169.8,169.8,0,0,0-32.4,33.54,179.89,179.89,0,0,0-24.2,45.91q-18.72,51.46-1.86,78.48t59.85,27q24.73,0,44.7-6.51a203.14,203.14,0,0,0,36.29-15.63,28,28,0,0,1,9.18,12.38q2.58,7.17-1.19,17.58-7.35,20.19-38.7,33.86T1540,535.66q-35.82,0-61.89-9.77t-40.22-30q-14.14-20.18-15.17-50.47t13.67-70.66q14.7-40.37,38.53-71t53-50.8a226.08,226.08,0,0,1,127.68-40.37q21.5,0,37.33,3.9t25.72,10.75q9.87,6.84,13.52,15.63a24.79,24.79,0,0,1,.09,18.56,44.64,44.64,0,0,1-10.93,16.6,56.49,56.49,0,0,1-16.2,11.4,119.33,119.33,0,0,0-24.83-15Q1666.09,268,1641.34,268Z" transform="translate(-12.84 -54.03)" style="fill:url(#Verlauf_1)"/><path d="M1925.63,442.53q-15.89,43.64-57.45,68.38t-103.44,24.75a238.76,238.76,0,0,1-45.46-3.91q-20.07-3.9-32.77-11.07t-17.61-16.93q-4.9-9.78-.64-21.49A53.19,53.19,0,0,1,1679.78,464a65.2,65.2,0,0,1,18.33-13.67A166.71,166.71,0,0,0,1732,471.84q19.89,9.77,51.15,9.76,29.3,0,48.6-10.09t26.18-29q5.92-16.26-1.26-26t-26.13-15l-40-11.72q-40-11.71-53.51-31.91t-.69-55.35A118.45,118.45,0,0,1,1757,267a135.19,135.19,0,0,1,33.55-28.65,171.19,171.19,0,0,1,45-18.89,208.81,208.81,0,0,1,54.59-6.83,213.25,213.25,0,0,1,41.35,3.58q17.89,3.59,29.66,9.77t16.24,15.3q4.5,9.13.71,19.54A49.76,49.76,0,0,1,1967,278.75a62.23,62.23,0,0,1-16.11,12q-9.12-7.16-29.15-15.63T1875,266.7q-27.35,0-46.42,9.44t-25.23,26.38q-4.74,13,1,21.49t25.31,13.67l34.21,9.77q44.75,13,60.14,35.17T1925.63,442.53Z" transform="translate(-12.84 -54.03)" style="fill:url(#Verlauf_1)"/><g style="clip-path:url(#clip-path)"><rect width="664.71" height="486.55" style="fill:url(#Neues_Verlaufsfeld_1)"/></g><g style="clip-path:url(#clip-path-2)"><rect width="664.71" height="486.55" style="fill:url(#Neues_Verlaufsfeld_1)"/></g><g style="clip-path:url(#clip-path-3)"><rect width="664.71" height="486.55" style="fill:url(#Neues_Verlaufsfeld_1)"/></g><g style="clip-path:url(#clip-path-4)"><rect width="664.71" height="486.55" style="fill:url(#Neues_Verlaufsfeld_1)"/></g><g style="clip-path:url(#clip-path-5)"><rect width="664.71" height="486.55" style="fill:url(#Neues_Verlaufsfeld_1)"/></g><g style="clip-path:url(#clip-path-6)"><rect width="664.71" height="486.55" style="fill:url(#Neues_Verlaufsfeld_1)"/></g><g style="clip-path:url(#clip-path-7)"><rect width="664.71" height="486.55" style="fill:url(#Neues_Verlaufsfeld_1)"/></g><g style="clip-path:url(#clip-path-8)"><rect width="664.71" height="486.55" style="fill:url(#Neues_Verlaufsfeld_1)"/></g><g style="clip-path:url(#clip-path-9)"><rect width="664.71" height="486.55" style="fill:url(#Neues_Verlaufsfeld_1)"/></g><g style="clip-path:url(#clip-path-10)"><rect width="664.71" height="486.55" style="fill:url(#Neues_Verlaufsfeld_1)"/></g><g style="clip-path:url(#clip-path-11)"><rect width="664.71" height="486.55" style="fill:url(#Neues_Verlaufsfeld_1)"/></g><g style="clip-path:url(#clip-path-12)"><rect width="664.71" height="486.55" style="fill:url(#Neues_Verlaufsfeld_1)"/></g><g style="clip-path:url(#clip-path-13)"><rect width="664.71" height="486.55" style="fill:url(#Neues_Verlaufsfeld_1)"/></g><path d="M554.53,342.69v-.05C554.63,341.42,554.58,342.06,554.53,342.69Z" transform="translate(-12.84 -54.03)" style="fill:none"/><g style="clip-path:url(#clip-path-14)"><rect width="664.71" height="486.55" style="fill:url(#Neues_Verlaufsfeld_1)"/></g><path d="M554.5,343.07c0-.07,0-.17,0-.28v-.09C554.52,342.83,554.51,343,554.5,343.07Z" transform="translate(-12.84 -54.03)" style="fill:none"/><g style="clip-path:url(#clip-path-15)"><rect width="664.71" height="486.55" style="fill:url(#Neues_Verlaufsfeld_1)"/></g><path d="M554.5,343.07c0,.6,0,.4,0,0Z" transform="translate(-12.84 -54.03)" style="fill:none"/><g style="clip-path:url(#clip-path-16)"><rect width="664.71" height="486.55" style="fill:url(#Neues_Verlaufsfeld_1)"/></g><g style="clip-path:url(#clip-path-17)"><rect width="664.71" height="486.55" style="fill:url(#Neues_Verlaufsfeld_1)"/></g><path d="M540.12,193.31l-.4-.22Z" transform="translate(-12.84 -54.03)" style="fill:none"/><g style="clip-path:url(#clip-path-18)"><rect width="664.71" height="486.55" style="fill:url(#Neues_Verlaufsfeld_1)"/></g><g style="clip-path:url(#clip-path-19)"><rect width="664.71" height="486.55" style="fill:url(#Neues_Verlaufsfeld_1)"/></g><g style="clip-path:url(#clip-path-20)"><rect width="664.71" height="486.55" style="fill:url(#Neues_Verlaufsfeld_1)"/></g><g style="clip-path:url(#clip-path-21)"><rect width="664.71" height="486.55" style="fill:url(#Neues_Verlaufsfeld_1)"/></g><g style="clip-path:url(#clip-path-22)"><rect width="664.71" height="486.55" style="fill:url(#Neues_Verlaufsfeld_1)"/></g><path d="M501,410.86a69.73,69.73,0,0,1-24.38-4.15A55.73,55.73,0,0,1,445,378.09l-158.18-286c-9.43-17.06-32.73-28.47-58-28.38l-148.41.52A190.61,190.61,0,0,1,124.66,77a153.24,153.24,0,0,1,52.16,36.77,150.82,150.82,0,0,1,21.06,29.33c.42.74.83,1.49,1.23,2.23L400.69,509.85a43.72,43.72,0,0,0,11.93,13.6c10.61,8.12,25.22,12.65,40.43,12.6.81,0,1.64,0,2.46,0,16.07-.58,31-6.25,41.07-15.57A40.55,40.55,0,0,0,506.7,506l46.59-114.41-.09,0A81.51,81.51,0,0,1,501,410.86Z" transform="translate(-12.84 -54.03)" style="fill:url(#Neues_Verlaufsfeld_1-23)"/></svg>